# Blender v2.79 (sub 0) OBJ File: 'hollow_cylinder.blend'
# www.blender.org
mtllib hollow_cylinder_new.mtl
o Cylinder_Cylinder.001
v 0.000000 -2.000000 -1.500000
v 0.000000 2.000000 -1.500000
v 0.292636 -2.000000 -1.471178
v 0.292636 2.000000 -1.471178
v 0.574025 -2.000000 -1.385819
v 0.574025 2.000000 -1.385819
v 0.833355 -2.000000 -1.247204
v 0.833355 2.000000 -1.247204
v 1.060660 -2.000000 -1.060660
v 1.060660 2.000000 -1.060660
v 1.247205 -2.000000 -0.833355
v 1.247205 2.000000 -0.833355
v 1.385819 -2.000000 -0.574025
v 1.385819 2.000000 -0.574025
v 1.471178 -2.000000 -0.292636
v 1.471178 2.000000 -0.292636
v 1.500000 -2.000000 -0.000000
v 1.500000 2.000000 -0.000000
v 1.471178 -2.000000 0.292635
v 1.471178 2.000000 0.292635
v 1.385819 -2.000000 0.574025
v 1.385819 2.000000 0.574025
v 1.247205 -2.000000 0.833355
v 1.247205 2.000000 0.833355
v 1.060660 -2.000000 1.060660
v 1.060660 2.000000 1.060660
v 0.833355 -2.000000 1.247205
v 0.833355 2.000000 1.247205
v 0.574025 -2.000000 1.385819
v 0.574025 2.000000 1.385819
v 0.292635 -2.000000 1.471178
v 0.292635 2.000000 1.471178
v -0.000000 -2.000000 1.500000
v -0.000000 2.000000 1.500000
v -0.292636 -2.000000 1.471178
v -0.292636 2.000000 1.471178
v -0.574026 -2.000000 1.385819
v -0.574026 2.000000 1.385819
v -0.833356 -2.000000 1.247204
v -0.833356 2.000000 1.247204
v -1.060661 -2.000000 1.060660
v -1.060661 2.000000 1.060660
v -1.247205 -2.000000 0.833354
v -1.247205 2.000000 0.833354
v -1.385820 -2.000000 0.574024
v -1.385820 2.000000 0.574024
v -1.471178 -2.000000 0.292634
v -1.471178 2.000000 0.292634
v -1.500000 -2.000000 -0.000001
v -1.500000 2.000000 -0.000001
v -1.471178 -2.000000 -0.292637
v -1.471178 2.000000 -0.292637
v -1.385819 -2.000000 -0.574027
v -1.385819 2.000000 -0.574027
v -1.247203 -2.000000 -0.833357
v -1.247203 2.000000 -0.833357
v -1.060659 -2.000000 -1.060662
v -1.060659 2.000000 -1.060662
v -0.833354 -2.000000 -1.247205
v -0.833354 2.000000 -1.247205
v -0.574023 -2.000000 -1.385820
v -0.574023 2.000000 -1.385820
v -0.292633 -2.000000 -1.471178
v -0.292633 2.000000 -1.471178
v 0.000000 -2.000000 -0.588000
v 0.000000 2.000000 -0.588000
v 0.114728 -2.000000 -0.576712
v 0.114728 2.000000 -0.576712
v 0.225029 -2.000000 -0.543262
v 0.225029 2.000000 -0.543262
v 0.326685 -2.000000 -0.488925
v 0.326685 2.000000 -0.488925
v 0.415800 -2.000000 -0.415800
v 0.415800 2.000000 -0.415800
v 0.488925 -2.000000 -0.326685
v 0.488925 2.000000 -0.326685
v 0.543262 -2.000000 -0.225029
v 0.543262 2.000000 -0.225029
v 0.576712 -2.000000 -0.114728
v 0.576712 2.000000 -0.114728
v 0.588000 -2.000000 -0.000000
v 0.588000 2.000000 -0.000000
v 0.576712 -2.000000 0.114727
v 0.576712 2.000000 0.114727
v 0.543262 -2.000000 0.225028
v 0.543262 2.000000 0.225028
v 0.488925 -2.000000 0.326685
v 0.488925 2.000000 0.326685
v 0.415800 -2.000000 0.415800
v 0.415800 2.000000 0.415800
v 0.326685 -2.000000 0.488925
v 0.326685 2.000000 0.488925
v 0.225028 -2.000000 0.543262
v 0.225028 2.000000 0.543262
v 0.114727 -2.000000 0.576712
v 0.114727 2.000000 0.576712
v -0.000000 -2.000000 0.588027
v -0.000000 2.000000 0.588027
v -0.114728 -2.000000 0.576712
v -0.114728 2.000000 0.576712
v -0.225029 -2.000000 0.543262
v -0.225029 2.000000 0.543262
v -0.326686 -2.000000 0.488925
v -0.326686 2.000000 0.488925
v -0.415801 -2.000000 0.415799
v -0.415801 2.000000 0.415799
v -0.488926 -2.000000 0.326684
v -0.488926 2.000000 0.326684
v -0.543262 -2.000000 0.225027
v -0.543262 2.000000 0.225027
v -0.576712 -2.000000 0.114726
v -0.576712 2.000000 0.114726
v -0.588027 -2.000000 -0.000001
v -0.588027 2.000000 -0.000001
v -0.576712 -2.000000 -0.114729
v -0.576712 2.000000 -0.114729
v -0.543261 -2.000000 -0.225030
v -0.543261 2.000000 -0.225030
v -0.488924 -2.000000 -0.326687
v -0.488924 2.000000 -0.326687
v -0.415799 -2.000000 -0.415801
v -0.415799 2.000000 -0.415801
v -0.326684 -2.000000 -0.488926
v -0.326684 2.000000 -0.488926
v -0.225026 -2.000000 -0.543263
v -0.225026 2.000000 -0.543263
v -0.114725 -2.000000 -0.576713
v -0.114725 2.000000 -0.576713
vn 0.0980 0.0000 -0.9952
vn 0.2903 0.0000 -0.9569
vn 0.4714 0.0000 -0.8819
vn 0.6344 0.0000 -0.7730
vn 0.7730 0.0000 -0.6344
vn 0.8819 0.0000 -0.4714
vn 0.9569 0.0000 -0.2903
vn 0.9952 0.0000 -0.0980
vn 0.9952 0.0000 0.0980
vn 0.9569 0.0000 0.2903
vn 0.8819 0.0000 0.4714
vn 0.7730 0.0000 0.6344
vn 0.6344 0.0000 0.7730
vn 0.4714 0.0000 0.8819
vn 0.2903 0.0000 0.9569
vn 0.0980 0.0000 0.9952
vn -0.0980 0.0000 0.9952
vn -0.2903 0.0000 0.9569
vn -0.4714 0.0000 0.8819
vn -0.6344 0.0000 0.7730
vn -0.7730 0.0000 0.6344
vn -0.8819 0.0000 0.4714
vn -0.9569 0.0000 0.2903
vn -0.9952 0.0000 0.0980
vn -0.9952 0.0000 -0.0980
vn -0.9569 0.0000 -0.2903
vn -0.8819 0.0000 -0.4714
vn -0.7730 0.0000 -0.6344
vn -0.6344 0.0000 -0.7730
vn -0.4714 0.0000 -0.8819
vn -0.2903 0.0000 -0.9569
vn -0.0980 0.0000 -0.9952
vn -0.0979 0.0000 0.9952
vn -0.2902 0.0000 0.9570
vn -0.6343 0.0000 0.7730
vn -0.7730 0.0000 0.6343
vn -0.9570 0.0000 0.2902
vn -0.9952 0.0000 0.0979
vn -0.9952 0.0000 -0.0979
vn -0.9570 0.0000 -0.2902
vn -0.7730 0.0000 -0.6343
vn -0.6343 0.0000 -0.7730
vn -0.2902 0.0000 -0.9570
vn -0.0982 0.0000 -0.9952
vn 0.0982 0.0000 -0.9952
vn 0.2902 0.0000 -0.9570
vn 0.6343 0.0000 -0.7730
vn 0.7731 0.0000 -0.6343
vn 0.9570 0.0000 -0.2902
vn 0.9952 0.0000 -0.0981
vn 0.9952 0.0000 0.0982
vn 0.9570 0.0000 0.2902
vn 0.7730 0.0000 0.6343
vn 0.6343 0.0000 0.7731
vn 0.2902 0.0000 0.9570
vn 0.0979 0.0000 0.9952
vn 0.0000 -1.0000 0.0000
vn 0.0000 1.0000 0.0000
usemtl None
s off
f 1//1 2//1 4//1 3//1
f 3//2 4//2 6//2 5//2
f 5//3 6//3 8//3 7//3
f 7//4 8//4 10//4 9//4
f 9//5 10//5 12//5 11//5
f 11//6 12//6 14//6 13//6
f 13//7 14//7 16//7 15//7
f 15//8 16//8 18//8 17//8
f 17//9 18//9 20//9 19//9
f 19//10 20//10 22//10 21//10
f 21//11 22//11 24//11 23//11
f 23//12 24//12 26//12 25//12
f 25//13 26//13 28//13 27//13
f 27//14 28//14 30//14 29//14
f 29//15 30//15 32//15 31//15
f 31//16 32//16 34//16 33//16
f 33//17 34//17 36//17 35//17
f 35//18 36//18 38//18 37//18
f 37//19 38//19 40//19 39//19
f 39//20 40//20 42//20 41//20
f 41//21 42//21 44//21 43//21
f 43//22 44//22 46//22 45//22
f 45//23 46//23 48//23 47//23
f 47//24 48//24 50//24 49//24
f 49//25 50//25 52//25 51//25
f 51//26 52//26 54//26 53//26
f 53//27 54//27 56//27 55//27
f 55//28 56//28 58//28 57//28
f 57//29 58//29 60//29 59//29
f 59//30 60//30 62//30 61//30
f 61//31 62//31 64//31 63//31
f 63//32 64//32 2//32 1//32
f 65//33 67//33 68//33 66//33
f 67//34 69//34 70//34 68//34
f 69//19 71//19 72//19 70//19
f 71//35 73//35 74//35 72//35
f 73//36 75//36 76//36 74//36
f 75//22 77//22 78//22 76//22
f 77//37 79//37 80//37 78//37
f 79//38 81//38 82//38 80//38
f 81//39 83//39 84//39 82//39
f 83//40 85//40 86//40 84//40
f 85//27 87//27 88//27 86//27
f 87//41 89//41 90//41 88//41
f 89//42 91//42 92//42 90//42
f 91//30 93//30 94//30 92//30
f 93//43 95//43 96//43 94//43
f 95//44 97//44 98//44 96//44
f 97//45 99//45 100//45 98//45
f 99//46 101//46 102//46 100//46
f 101//3 103//3 104//3 102//3
f 103//47 105//47 106//47 104//47
f 105//48 107//48 108//48 106//48
f 107//6 109//6 110//6 108//6
f 109//49 111//49 112//49 110//49
f 111//50 113//50 114//50 112//50
f 113//51 115//51 116//51 114//51
f 115//52 117//52 118//52 116//52
f 117//11 119//11 120//11 118//11
f 119//53 121//53 122//53 120//53
f 121//54 123//54 124//54 122//54
f 123//14 125//14 126//14 124//14
f 125//55 127//55 128//55 126//55
f 127//56 65//56 66//56 128//56
f 1//57 3//57 67//57 65//57
f 4//58 2//58 66//58 68//58
f 3//57 5//57 69//57 67//57
f 6//58 4//58 68//58 70//58
f 5//57 7//57 71//57 69//57
f 8//58 6//58 70//58 72//58
f 7//57 9//57 73//57 71//57
f 10//58 8//58 72//58 74//58
f 9//57 11//57 75//57 73//57
f 12//58 10//58 74//58 76//58
f 11//57 13//57 77//57 75//57
f 14//58 12//58 76//58 78//58
f 13//57 15//57 79//57 77//57
f 16//58 14//58 78//58 80//58
f 15//57 17//57 81//57 79//57
f 18//58 16//58 80//58 82//58
f 17//57 19//57 83//57 81//57
f 20//58 18//58 82//58 84//58
f 19//57 21//57 85//57 83//57
f 22//58 20//58 84//58 86//58
f 21//57 23//57 87//57 85//57
f 24//58 22//58 86//58 88//58
f 23//57 25//57 89//57 87//57
f 26//58 24//58 88//58 90//58
f 25//57 27//57 91//57 89//57
f 28//58 26//58 90//58 92//58
f 27//57 29//57 93//57 91//57
f 30//58 28//58 92//58 94//58
f 29//57 31//57 95//57 93//57
f 32//58 30//58 94//58 96//58
f 31//57 33//57 97//57 95//57
f 34//58 32//58 96//58 98//58
f 33//57 35//57 99//57 97//57
f 36//58 34//58 98//58 100//58
f 35//57 37//57 101//57 99//57
f 38//58 36//58 100//58 102//58
f 37//57 39//57 103//57 101//57
f 40//58 38//58 102//58 104//58
f 39//57 41//57 105//57 103//57
f 42//58 40//58 104//58 106//58
f 41//57 43//57 107//57 105//57
f 44//58 42//58 106//58 108//58
f 43//57 45//57 109//57 107//57
f 46//58 44//58 108//58 110//58
f 45//57 47//57 111//57 109//57
f 48//58 46//58 110//58 112//58
f 47//57 49//57 113//57 111//57
f 50//58 48//58 112//58 114//58
f 49//57 51//57 115//57 113//57
f 52//58 50//58 114//58 116//58
f 51//57 53//57 117//57 115//57
f 54//58 52//58 116//58 118//58
f 53//57 55//57 119//57 117//57
f 56//58 54//58 118//58 120//58
f 55//57 57//57 121//57 119//57
f 58//58 56//58 120//58 122//58
f 57//57 59//57 123//57 121//57
f 60//58 58//58 122//58 124//58
f 59//57 61//57 125//57 123//57
f 62//58 60//58 124//58 126//58
f 61//57 63//57 127//57 125//57
f 64//58 62//58 126//58 128//58
f 63//57 1//57 65//57 127//57
f 2//58 64//58 128//58 66//58
