# Blender v2.79 (sub 0) OBJ File: 'hollow_cylinder.blend'
# www.blender.org
mtllib hollow_cylinder_1.mtl
o Cylinder_Cylinder.001
v 0.000000 -1.500000 -1.000000
v 0.000000 1.500000 -1.000000
v 0.189238 -1.500000 -0.980785
v 0.189238 1.500000 -0.980785
v 0.371203 -1.500000 -0.923880
v 0.371203 1.500000 -0.923880
v 0.538903 -1.500000 -0.831470
v 0.538903 1.500000 -0.831470
v 0.685894 -1.500000 -0.707107
v 0.685894 1.500000 -0.707107
v 0.806526 -1.500000 -0.555570
v 0.806526 1.500000 -0.555570
v 0.896163 -1.500000 -0.382683
v 0.896163 1.500000 -0.382683
v 0.951362 -1.500000 -0.195090
v 0.951362 1.500000 -0.195090
v 0.970000 -1.500000 -0.000000
v 0.970000 1.500000 -0.000000
v 0.951362 -1.500000 0.195090
v 0.951362 1.500000 0.195090
v 0.896163 -1.500000 0.382683
v 0.896163 1.500000 0.382683
v 0.806526 -1.500000 0.555570
v 0.806526 1.500000 0.555570
v 0.685894 -1.500000 0.707107
v 0.685894 1.500000 0.707107
v 0.538903 -1.500000 0.831470
v 0.538903 1.500000 0.831470
v 0.371203 -1.500000 0.923880
v 0.371203 1.500000 0.923880
v 0.189237 -1.500000 0.980785
v 0.189237 1.500000 0.980785
v -0.000000 -1.500000 1.000000
v -0.000000 1.500000 1.000000
v -0.189238 -1.500000 0.980785
v -0.189238 1.500000 0.980785
v -0.371203 -1.500000 0.923879
v -0.371203 1.500000 0.923879
v -0.538904 -1.500000 0.831469
v -0.538904 1.500000 0.831469
v -0.685894 -1.500000 0.707106
v -0.685894 1.500000 0.707106
v -0.806526 -1.500000 0.555570
v -0.806526 1.500000 0.555570
v -0.896163 -1.500000 0.382683
v -0.896163 1.500000 0.382683
v -0.951362 -1.500000 0.195089
v -0.951362 1.500000 0.195089
v -0.970000 -1.500000 -0.000001
v -0.970000 1.500000 -0.000001
v -0.951361 -1.500000 -0.195091
v -0.951361 1.500000 -0.195091
v -0.896163 -1.500000 -0.382684
v -0.896163 1.500000 -0.382684
v -0.806525 -1.500000 -0.555571
v -0.806525 1.500000 -0.555571
v -0.685893 -1.500000 -0.707108
v -0.685893 1.500000 -0.707108
v -0.538902 -1.500000 -0.831470
v -0.538902 1.500000 -0.831470
v -0.371202 -1.500000 -0.923880
v -0.371202 1.500000 -0.923880
v -0.189236 -1.500000 -0.980786
v -0.189236 1.500000 -0.980786
v 0.000000 -1.500000 -0.415000
v 0.000000 1.500000 -0.415000
v 0.078543 -1.500000 -0.407033
v 0.078543 1.500000 -0.407033
v 0.154056 -1.500000 -0.383424
v 0.154056 1.500000 -0.383424
v 0.223651 -1.500000 -0.345073
v 0.223651 1.500000 -0.345073
v 0.284659 -1.500000 -0.293463
v 0.284659 1.500000 -0.293463
v 0.334721 -1.500000 -0.230568
v 0.334721 1.500000 -0.230568
v 0.371921 -1.500000 -0.158821
v 0.371921 1.500000 -0.158821
v 0.394822 -1.500000 -0.080972
v 0.394822 1.500000 -0.080972
v 0.402550 -1.500000 -0.000000
v 0.402550 1.500000 -0.000000
v 0.394822 -1.500000 0.080972
v 0.394822 1.500000 0.080972
v 0.371921 -1.500000 0.158820
v 0.371921 1.500000 0.158820
v 0.334721 -1.500000 0.230568
v 0.334721 1.500000 0.230568
v 0.284659 -1.500000 0.293463
v 0.284659 1.500000 0.293463
v 0.223651 -1.500000 0.345074
v 0.223651 1.500000 0.345074
v 0.154056 -1.500000 0.383424
v 0.154056 1.500000 0.383424
v 0.078542 -1.500000 0.407033
v 0.078542 1.500000 0.407033
v -0.000000 -1.500000 0.415018
v -0.000000 1.500000 0.415018
v -0.078543 -1.500000 0.407033
v -0.078543 1.500000 0.407033
v -0.154056 -1.500000 0.383423
v -0.154056 1.500000 0.383423
v -0.223652 -1.500000 0.345073
v -0.223652 1.500000 0.345073
v -0.284660 -1.500000 0.293463
v -0.284660 1.500000 0.293463
v -0.334722 -1.500000 0.230568
v -0.334722 1.500000 0.230568
v -0.371921 -1.500000 0.158820
v -0.371921 1.500000 0.158820
v -0.394822 -1.500000 0.080971
v -0.394822 1.500000 0.080971
v -0.402567 -1.500000 -0.000001
v -0.402567 1.500000 -0.000001
v -0.394822 -1.500000 -0.080973
v -0.394822 1.500000 -0.080973
v -0.371920 -1.500000 -0.158822
v -0.371920 1.500000 -0.158822
v -0.334721 -1.500000 -0.230569
v -0.334721 1.500000 -0.230569
v -0.284658 -1.500000 -0.293464
v -0.284658 1.500000 -0.293464
v -0.223650 -1.500000 -0.345074
v -0.223650 1.500000 -0.345074
v -0.154055 -1.500000 -0.383424
v -0.154055 1.500000 -0.383424
v -0.078541 -1.500000 -0.407033
v -0.078541 1.500000 -0.407033
vn 0.1010 0.0000 -0.9949
vn 0.2985 0.0000 -0.9544
vn 0.4826 0.0000 -0.8758
vn 0.6459 0.0000 -0.7634
vn 0.7824 0.0000 -0.6228
vn 0.8878 0.0000 -0.4603
vn 0.9593 0.0000 -0.2823
vn 0.9955 0.0000 -0.0951
vn 0.9955 0.0000 0.0951
vn 0.9593 0.0000 0.2823
vn 0.8878 0.0000 0.4603
vn 0.7824 0.0000 0.6228
vn 0.6459 0.0000 0.7634
vn 0.4826 0.0000 0.8758
vn 0.2985 0.0000 0.9544
vn 0.1010 0.0000 0.9949
vn -0.1010 0.0000 0.9949
vn -0.2985 0.0000 0.9544
vn -0.4826 0.0000 0.8758
vn -0.6459 0.0000 0.7634
vn -0.7824 0.0000 0.6228
vn -0.8878 0.0000 0.4603
vn -0.9593 0.0000 0.2823
vn -0.9955 0.0000 0.0951
vn -0.9955 0.0000 -0.0951
vn -0.9593 0.0000 -0.2823
vn -0.8878 0.0000 -0.4603
vn -0.7824 0.0000 -0.6228
vn -0.6459 0.0000 -0.7634
vn -0.4826 0.0000 -0.8758
vn -0.2985 0.0000 -0.9544
vn -0.1010 0.0000 -0.9949
vn -0.1009 0.0000 0.9949
vn -0.2984 0.0000 0.9544
vn -0.6459 0.0000 0.7635
vn -0.9594 0.0000 0.2822
vn -0.9955 0.0000 0.0950
vn -0.9955 0.0000 -0.0950
vn -0.9594 0.0000 -0.2822
vn -0.6459 0.0000 -0.7635
vn -0.2984 0.0000 -0.9544
vn -0.1011 0.0000 -0.9949
vn 0.1011 0.0000 -0.9949
vn 0.2984 0.0000 -0.9544
vn 0.6459 0.0000 -0.7635
vn 0.9594 0.0000 -0.2822
vn 0.9955 0.0000 -0.0952
vn 0.9955 0.0000 0.0952
vn 0.9594 0.0000 0.2822
vn 0.6459 0.0000 0.7635
vn 0.2984 0.0000 0.9544
vn 0.1009 0.0000 0.9949
vn 0.0000 -1.0000 0.0000
vn 0.0000 1.0000 0.0000
usemtl None
s off
f 1//1 2//1 4//1 3//1
f 3//2 4//2 6//2 5//2
f 5//3 6//3 8//3 7//3
f 7//4 8//4 10//4 9//4
f 9//5 10//5 12//5 11//5
f 11//6 12//6 14//6 13//6
f 13//7 14//7 16//7 15//7
f 15//8 16//8 18//8 17//8
f 17//9 18//9 20//9 19//9
f 19//10 20//10 22//10 21//10
f 21//11 22//11 24//11 23//11
f 23//12 24//12 26//12 25//12
f 25//13 26//13 28//13 27//13
f 27//14 28//14 30//14 29//14
f 29//15 30//15 32//15 31//15
f 31//16 32//16 34//16 33//16
f 33//17 34//17 36//17 35//17
f 35//18 36//18 38//18 37//18
f 37//19 38//19 40//19 39//19
f 39//20 40//20 42//20 41//20
f 41//21 42//21 44//21 43//21
f 43//22 44//22 46//22 45//22
f 45//23 46//23 48//23 47//23
f 47//24 48//24 50//24 49//24
f 49//25 50//25 52//25 51//25
f 51//26 52//26 54//26 53//26
f 53//27 54//27 56//27 55//27
f 55//28 56//28 58//28 57//28
f 57//29 58//29 60//29 59//29
f 59//30 60//30 62//30 61//30
f 61//31 62//31 64//31 63//31
f 63//32 64//32 2//32 1//32
f 65//33 67//33 68//33 66//33
f 67//34 69//34 70//34 68//34
f 69//19 71//19 72//19 70//19
f 71//35 73//35 74//35 72//35
f 73//21 75//21 76//21 74//21
f 75//22 77//22 78//22 76//22
f 77//36 79//36 80//36 78//36
f 79//37 81//37 82//37 80//37
f 81//38 83//38 84//38 82//38
f 83//39 85//39 86//39 84//39
f 85//27 87//27 88//27 86//27
f 87//28 89//28 90//28 88//28
f 89//40 91//40 92//40 90//40
f 91//30 93//30 94//30 92//30
f 93//41 95//41 96//41 94//41
f 95//42 97//42 98//42 96//42
f 97//43 99//43 100//43 98//43
f 99//44 101//44 102//44 100//44
f 101//3 103//3 104//3 102//3
f 103//45 105//45 106//45 104//45
f 105//5 107//5 108//5 106//5
f 107//6 109//6 110//6 108//6
f 109//46 111//46 112//46 110//46
f 111//47 113//47 114//47 112//47
f 113//48 115//48 116//48 114//48
f 115//49 117//49 118//49 116//49
f 117//11 119//11 120//11 118//11
f 119//12 121//12 122//12 120//12
f 121//50 123//50 124//50 122//50
f 123//14 125//14 126//14 124//14
f 125//51 127//51 128//51 126//51
f 127//52 65//52 66//52 128//52
f 1//53 3//53 67//53 65//53
f 4//54 2//54 66//54 68//54
f 3//53 5//53 69//53 67//53
f 6//54 4//54 68//54 70//54
f 5//53 7//53 71//53 69//53
f 8//54 6//54 70//54 72//54
f 7//53 9//53 73//53 71//53
f 10//54 8//54 72//54 74//54
f 9//53 11//53 75//53 73//53
f 12//54 10//54 74//54 76//54
f 11//53 13//53 77//53 75//53
f 14//54 12//54 76//54 78//54
f 13//53 15//53 79//53 77//53
f 16//54 14//54 78//54 80//54
f 15//53 17//53 81//53 79//53
f 18//54 16//54 80//54 82//54
f 17//53 19//53 83//53 81//53
f 20//54 18//54 82//54 84//54
f 19//53 21//53 85//53 83//53
f 22//54 20//54 84//54 86//54
f 21//53 23//53 87//53 85//53
f 24//54 22//54 86//54 88//54
f 23//53 25//53 89//53 87//53
f 26//54 24//54 88//54 90//54
f 25//53 27//53 91//53 89//53
f 28//54 26//54 90//54 92//54
f 27//53 29//53 93//53 91//53
f 30//54 28//54 92//54 94//54
f 29//53 31//53 95//53 93//53
f 32//54 30//54 94//54 96//54
f 31//53 33//53 97//53 95//53
f 34//54 32//54 96//54 98//54
f 33//53 35//53 99//53 97//53
f 36//54 34//54 98//54 100//54
f 35//53 37//53 101//53 99//53
f 38//54 36//54 100//54 102//54
f 37//53 39//53 103//53 101//53
f 40//54 38//54 102//54 104//54
f 39//53 41//53 105//53 103//53
f 42//54 40//54 104//54 106//54
f 41//53 43//53 107//53 105//53
f 44//54 42//54 106//54 108//54
f 43//53 45//53 109//53 107//53
f 46//54 44//54 108//54 110//54
f 45//53 47//53 111//53 109//53
f 48//54 46//54 110//54 112//54
f 47//53 49//53 113//53 111//53
f 50//54 48//54 112//54 114//54
f 49//53 51//53 115//53 113//53
f 52//54 50//54 114//54 116//54
f 51//53 53//53 117//53 115//53
f 54//54 52//54 116//54 118//54
f 53//53 55//53 119//53 117//53
f 56//54 54//54 118//54 120//54
f 55//53 57//53 121//53 119//53
f 58//54 56//54 120//54 122//54
f 57//53 59//53 123//53 121//53
f 60//54 58//54 122//54 124//54
f 59//53 61//53 125//53 123//53
f 62//54 60//54 124//54 126//54
f 61//53 63//53 127//53 125//53
f 64//54 62//54 126//54 128//54
f 63//53 1//53 65//53 127//53
f 2//54 64//54 128//54 66//54
